<svg width="48" height="48" viewBox="0 0 21 31" fill="none" xmlns="http://www.w3.org/2000/svg">
<path d="M5.65008 30.7296C8.41791 30.7296 10.6617 28.4859 10.6617 25.718V20.7065H5.65008C2.88226 20.7065 0.638489 22.9502 0.638489 25.718C0.638489 28.4859 2.88226 30.7296 5.65008 30.7296Z" fill="#0ACF83"/>
<path d="M0.638489 15.6948C0.638489 12.927 2.88226 10.6832 5.65008 10.6832H10.6617V20.7064H5.65008C2.88226 20.7064 0.638489 18.4627 0.638489 15.6948Z" fill="#A259FF"/>
<path d="M0.638489 5.67163C0.638489 2.9038 2.88226 0.660034 5.65008 0.660034H10.6617V10.6832H5.65008C2.88226 10.6832 0.638489 8.43946 0.638489 5.67163Z" fill="#F24E1E"/>
<path d="M10.6617 0.660034H15.6733C18.4411 0.660034 20.6849 2.9038 20.6849 5.67163C20.6849 8.43946 18.4411 10.6832 15.6733 10.6832H10.6617V0.660034Z" fill="#FF7262"/>
<path d="M20.6849 15.6948C20.6849 18.4627 18.4411 20.7064 15.6733 20.7064C12.9054 20.7064 10.6617 18.4627 10.6617 15.6948C10.6617 12.927 12.9054 10.6832 15.6733 10.6832C18.4411 10.6832 20.6849 12.927 20.6849 15.6948Z" fill="#1ABCFE"/>
</svg>
