<svg width="28" height="28" viewBox="0 0 33 23" fill="none" xmlns="http://www.w3.org/2000/svg">
<path d="M19.9763 15.4656C20.9494 17.0148 22.2153 18.1535 24.4544 18.1535C26.3354 18.1535 27.5369 17.2368 27.5369 15.9702C27.5369 14.4524 26.3024 13.9149 24.232 13.0319L23.0972 12.5571C19.8214 11.1963 17.6452 9.49158 17.6452 5.88776C17.6452 2.56805 20.2393 0.0408936 24.2934 0.0408936C27.1796 0.0408936 29.2546 1.02036 30.7498 3.5849L27.2149 5.79804C26.4366 4.43726 25.5969 3.90117 24.2934 3.90117C22.9637 3.90117 22.121 4.72362 22.121 5.79804C22.121 7.12592 22.9645 7.6635 24.9122 8.48595L26.047 8.95998C29.9041 10.5727 32.0818 12.2169 32.0818 15.9134C32.0818 19.8986 28.8712 22.0818 24.5595 22.0818C20.3436 22.0818 17.6199 20.1229 16.2872 17.5553L19.9763 15.4656ZM3.94015 15.8491C4.65328 17.0828 5.30199 18.1258 6.86167 18.1258C8.3531 18.1258 9.29396 17.5568 9.29396 15.3444V0.293608H13.8334V15.4042C13.8334 19.9875 11.0775 22.0736 7.0549 22.0736C3.42026 22.0736 1.31539 20.2395 0.244934 18.0305L3.94015 15.8491Z" fill="black"/>
</svg>
